<svg id="Shield_2_color_CMYK" data-name="Shield 2 color CMYK" xmlns="http://www.w3.org/2000/svg" viewBox="0 0 170.75294 291.41576">
  <title>Artboard 2</title>
  <g>
    <g>
      <g>
        <g>
          <path d="M58.87742,38.62835c.32034.52446.73589,1.20035,1.32486,2.17506,1.54029,2.54721,3.92628,12.15187,7.00575,15.33486A33.967,33.967,0,0,1,73.30887,53.008a66.673,66.673,0,0,0-4.02249-6.09154c-3.69915-4.90979-6.35377-7.53121-6.65261-7.95606A13.61317,13.61317,0,0,1,58.87742,38.62835Z" style="fill: #fff"/>
          <path d="M86.63128,51.416c.734-5.027-.94-13.37172-1.92653-15.46087A20.057,20.057,0,0,1,81.094,34.68547a49.79537,49.79537,0,0,0-1.39567,9.0597c-.16852,2.68683-.09821,6.77522.39695,7.67083A38.19733,38.19733,0,0,1,86.63128,51.416Z" style="fill: #fff"/>
          <path d="M110.56,81.029A26.68952,26.68952,0,0,0,83.58262,54.055,26.97581,26.97581,0,0,0,56.60425,81.029a28.24455,28.24455,0,0,0,.39455,3.61764c7.76024-1.8,18.05049-1.51288,22.62134,2.11156a27.08772,27.08772,0,0,1,25.87423.06351,27.723,27.723,0,0,1,4.80088-1.803A32.11733,32.11733,0,0,0,110.56,81.029ZM77.6771,71.82867a3.13837,3.13837,0,1,1-6.26886-.31454l.0283-.34574c-.26663-.41115-1.6784-.86831-3.77536.40435-1.05333.64758-2.23467.20312-.40485-1.383a10.82911,10.82911,0,0,1,5.41376-2.86855l.05181-.0127a21.53068,21.53068,0,0,1,7.96576,1.049c.69148.28123-.0263,3.67324-.18452,3.63324a6.42167,6.42167,0,0,0-2.83294-.41025Zm8.99859,9.40544c-.55087,1.60069-6.21945,2.11256-7.26158.0293-.41115-.8263-.98162-2.95836-.21243-2.5169,1.26085.73349,5.8215.21483,6.68441,0,.76179-.19542.26463-1.25705.73589-1.12714C87.18455,77.77569,87.18455,79.71822,86.67569,81.23411Zm13.33851-8.87127c-1.425-1.17394-3.2909-1.6886-4.00578-1.17394l.0259.24123a3.13931,3.13931,0,1,1-6.25476.547v-.13482c-1.12754-.35544-2.92555.26573-3.17168.169-.14512-.06741-.90691-3.2631.08691-3.66554,2.70733-1.10363,11.43008-1.6437,13.96409,3.25439C100.95672,72.19391,100.77119,72.98311,100.0142,72.36283Z" style="fill: #fff"/>
          <path d="M101.6551,38.33041c-3.17128,2.68593-8.01757,9.19251-8.63634,14.40024a52.50085,52.50085,0,0,1,5.95732,2.92025c3.90037-3.84617,3.10778-8.085,4.63136-11.36268.66128-1.41427,1.299-2.52871,1.6692-3.16548A13.61236,13.61236,0,0,1,101.6551,38.33041Z" style="fill: #fff"/>
          <path d="M120.57629,48.63636c-.70319.38585-2.34648,1.39377-2.89975,1.80882-3.74555,2.82164-11.86574,6.6121-13.73606,8.68855a22.63373,22.63373,0,0,1,4.69057,5.68039c.91171.041,3.53213-2.09205,8.72906-8.208,1.6667-1.95344,3.43892-2.98476,6.65221-4.77208A18.68515,18.68515,0,0,1,120.57629,48.63636Z" style="fill: #fff"/>
          <path d="M55.16117,71.21139c-1.75412-1.73071-5.24184-3.226-9.78339-2.86165A84.8872,84.8872,0,0,1,26.4555,67.9854c-6.01243-.8624-9.74728-.0195-12.75154-.0195-9.14121,0,.25443.8223,1.32636,1.23935,4.30132,1.69751,12.97767,3.84717,19.8017,3.35,3.3334-.23243,8.91468,1.79712,9.8738,2.12916,2.4534.87611,6.89094,2.304,9.28823,2.25907A41.05176,41.05176,0,0,1,55.16117,71.21139Z" style="fill: #fff"/>
          <path d="M62.64348,59.79981c-4.67237-3.76806-8.96839-4.57275-15.81922-7.78994a48.62576,48.62576,0,0,1-4.29112-2.557c-.185-.13282-.52736-.34764-.94881-.60357a14.82862,14.82862,0,0,1-1.96944,3.99948c1.06113,1.37907,8.71876,10.11743,18.51784,12.84045A35.389,35.389,0,0,1,62.64348,59.79981Z" style="fill: #fff"/>
          <path d="M160.84437,66.55943a26.41341,26.41341,0,0,0-3.3217-.29984c-1.47427.0078-11.15755.05371-13.80637.45906-5.41716.8487-15.90183.41015-21.64962.19242a25.68146,25.68146,0,0,0-10.7493,2.31768,26.88672,26.88672,0,0,1,1.76241,6.948c1.82592.32424,3.58393-1.98264,8.79747-1.89673,5.43085.09181,18.79667-.63678,25.55919-3.2699a75.24931,75.24931,0,0,1,12.73064-3.63524C161.31562,67.1357,163.13664,66.91107,160.84437,66.55943Z" style="fill: #fff"/>
        </g>
        <path d="M39.78721,39.52686a1.61733,1.61733,0,0,1,1.57539-.14652c4.58165,1.47968,11.15275.47376,14.21662-4.37643a1.63753,1.63753,0,0,1,2.01684-.61637c3.16638,1.28246,9.654,1.87623,17.55333-6.14324a1.6476,1.6476,0,0,1,2.21217.0068c6.93984,5.56907,14.17122,5.91572,21.5041,1.03923.45466-.30284,1.03383-.69448,1.53779-.48836a1.65064,1.65064,0,0,1,.99382,1.18374C103.73885,40.818,115.04443,39.858,118.45,39.30813a1.66782,1.66782,0,0,1,1.24485.29784,1.64521,1.64521,0,0,1,.65388,1.09873c.37014,2.53361,3.17858,7.4472,8.04247,9.95541,4.1582,2.13786,8.68465,1.97284,13.46644-.49036a1.64875,1.64875,0,0,1,1.53288.0098c6.13654,3.2787,11.65921,3.47112,15.14733.53326a7.87961,7.87961,0,0,0,2.4798-8.40242c-1.08993-3.2914-4.36233-5.33755-8.97519-5.61788a1.64885,1.64885,0,0,1-1.53089-1.39467,8.70761,8.70761,0,0,0-4.24711-6.21755c-3.60744-2.19947-8.91468-2.4583-14.198-.69248a1.65342,1.65342,0,0,1-2.159-1.33706,8.595,8.595,0,0,0-3.71285-6.33377c-2.68152-1.6389-6.72981-1.59879-11.71092.11521a1.65477,1.65477,0,0,1-2.00414-.7969C109.278,13.89775,104.77748,9.911,99.47023,8.5055a18.294,18.294,0,0,0-14.48905,2.5169,1.65914,1.65914,0,0,1-1.89183-.06641,16.41962,16.41962,0,0,0-14.722-2.94856c-4.74527,1.44938-8.36041,5.15392-10.18383,10.43a1.654,1.654,0,0,1-2.17947.99232c-7.27048-2.91835-13.2053-2.845-17.16618.21583-3.40271,2.62922-4.45364,6.77132-4.30132,7.97947a1.61367,1.61367,0,0,1-1.213,1.80692l-1.738.41705c-4.02929.919-8.19869,1.87423-9.45474,8.2851a1.65456,1.65456,0,0,1-1.45968,1.32636c-7.00425.69928-11.5805,3.2934-12.54832,7.121a7.10527,7.10527,0,0,0,3.04717,7.4248c2.4911,1.6886,5.492,1.51278,8.2384-.48156a1.64815,1.64815,0,0,1,1.56119-.206c4.1128,1.57239,10.785,1.26085,14.83089-1.98174,2.932-2.35188,4.08249-5.821,3.41982-10.30695A1.64158,1.64158,0,0,1,39.78721,39.52686Zm110.96854.46106c4.1558-.96212,9.14611,2.07535,7.73043,7.66-.24123.95622-2.58771,1.01582-2.5057.0401.35844-4.67637-1.95284-5.05341-5.03041-5.02111C149.78493,42.69424,149.87424,40.18024,150.75575,39.98791ZM132.95969,31.69c4.041-2.30788,12.30859-1.89673,14.87971,5.47816.44095,1.25405-1.22335,3.38421-2.25718,1.48648-3.10828-5.71159-8.12888-5.69789-12.32269-4.0981C132.31991,34.9267,131.47121,32.53871,132.95969,31.69Zm-17.3742-8.504c3.75045-1.32626,10.13792-1.91623,11.84223,4.35213.48736,1.75221-1.6643,2.58721-2.14236,1.35956-1.74191-4.53765-5.01621-4.35793-8.92828-3.11078C114.55406,26.37786,114.99021,23.3921,115.58549,23.186ZM84.93678,16.12952c2.70242-4.397,16.84033-8.49033,24.09271,3.94678.76869,1.35366-.25783,2.14186-1.07143,2.69953-.57427.41015-.91661-.52346-1.29606-1.13494-6.15555-9.73748-17.29259-7.16877-20.28616-2.65262C85.76888,19.90338,84.14908,17.42268,84.93678,16.12952Zm-22.78156.70609c2.4822-3.93408,11.00173-9.98851,18.55295-3.3236.8483.73739-.16212,3.476-1.108,2.84014-6.90564-4.74858-12.3369-.93561-15.21615,2.4994C63.00292,20.48355,61.56335,17.785,62.15522,16.83561Zm-40.76763,27.519c-2.88855,0-5.20673.06051-7.23918,2.26977-2.17366,2.35379-1.6457,3.64694-2.05,4.07279-.59387.58307-2.08325-.44545-2.05595-1.6116.126-5.53967,6.81723-7.70113,10.785-7.25768C22.3393,42.00666,22.73045,44.35464,21.38758,44.35464Zm11.75382-9.298c-4.22561.464-5.46256,2.52761-6.21555,4.89409-.30864.88981-2.67952.252-2.30448-1.49918,1.12074-5.20573,6.76832-6.47928,8.81837-6.03493C34.12982,32.54951,33.9174,34.98331,33.1414,35.05661Zm3.61424-5.612c.86921-4.59626,5.36245-11.28847,15.62689-8.68275,1.26035.31844.51756,3.516-.8361,2.97886-7.49451-2.93876-11.25576,2.74553-12.46921,7.22948C38.9116,31.57959,36.4011,31.34917,36.75564,29.44464Z" style="fill: #fff"/>
        <g>
          <path d="M15.93912,85.90647c-4.9684-.10541-9.1071,1.29706-10.56618,3.84717a7.35665,7.35665,0,0,0,2.36059,9.8801c4.31942,2.597,8.437.90151,8.74176-.69638-1.17984-1.33016-3.21619-4.33843-4.35693-4.36473-1.6589-.043-1.52508-2.19557-.31894-2.58721,2.88565-.95422,5.69169,4.52395,9.83719,7.48521,3.69425,2.64392,8.87407.70719,8.87407-.37895C28.25021,97.04652,25.54969,86.1224,15.93912,85.90647Z" style="fill: #fff"/>
          <path d="M114.79339,98.825c3.43642,3.48192,8.12448,1.98954,8.34231.8488-.38434-.69448-2.55251-3.88727-3.82766-4.58065-1.04063-.57337-1.716-1.52558-1.15344-2.32158.93521-1.32246,2.81284-.38485,4.01319,1.06453,1.19985,1.46608,4.50985,5.7771,5.67019,6.43738,3.01206,1.6672,9.65246,1.06753,9.1158-.86931-1.83762-2.90855-3.10588-8.78516-8.57673-11.35588-5.68429-2.67992-12.96737-1.98164-19.71329.42485C109.8758,90.88758,113.03538,97.05632,114.79339,98.825Z" style="fill: #fff"/>
          <path d="M74.897,87.853c-5.69019-2.68192-13.72186-1.78632-20.47418.61147,1.87033,2.4934,4.9811,8.31641,6.5858,10.28054,3.10528,3.77966,8.417,1.87033,8.63575.72949-.372-.69628-3.223-4.38523-4.29732-5.00151-1.00212-.57437-1.58469-1.48848-1.02162-2.28448.94151-1.32436,3.15608,0,4.35793,1.44938,1.19985,1.45818,4.569,5.68039,5.677,6.42948,3.3221,2.25127,9.655,1.07823,9.1222-.8546C81.30594,96.33644,80.35662,90.41972,74.897,87.853Z" style="fill: #fff"/>
        </g>
      </g>
      <g>
        <g>
          <path d="M32.2726,131.372c-4.03949.11911-7.99267,1.71111-10.31375,1.30586v27.055s1.46508,1.11443,5.51827-.039c5.24623-1.49238,7.58152.14742,7.58152.14742V132.545S34.44776,131.30457,32.2726,131.372Z" style="fill: #fff"/>
          <path d="M46.76025,244.51658c4.05269,1.15734,5.51917.04,5.51917.04v-27.056c-2.322.40335-6.27466-1.18964-10.32055-1.31566-2.16966-.07131-2.78644,1.171-2.78644,1.171V244.6503S41.51352,243.0164,46.76025,244.51658Z" style="fill: #fff"/>
          <path d="M134.85982,131.372c-2.17077-.06741-2.79384,1.173-2.79384,1.173v27.29621s2.33428-1.6398,7.58732-.14742c4.05279,1.15344,5.52027.039,5.52027.039v-27.055C142.85289,133.08309,138.89881,131.49109,134.85982,131.372Z" style="fill: #fff"/>
          <path d="M41.95737,131.372c-2.17016-.06741-2.78744,1.173-2.78744,1.173v27.29621s2.34259-1.6398,7.58882-.14742c4.05179,1.15344,5.51777.039,5.51777.039v-27.055C49.95594,133.08309,46.00236,131.49109,41.95737,131.372Z" style="fill: #fff"/>
          <path d="M35.06644,244.6503V217.356s-.61727-1.24235-2.78554-1.171c-4.04589.126-7.99947,1.719-10.31375,1.31566v27.056s1.45868,1.11734,5.511-.04C32.72485,243.0164,35.06644,244.6503,35.06644,244.6503Z" style="fill: #fff"/>
          <path d="M132.57824,217.356V244.6503s2.33478-1.6339,7.58052-.13372c4.0552,1.15734,5.51337.04,5.51337.04v-27.056c-2.32309.40335-6.26786-1.18964-10.307-1.31566C133.18332,216.11364,132.57824,217.356,132.57824,217.356Z" style="fill: #fff"/>
          <path d="M125.17455,131.372c-4.03909.11911-7.99807,1.71111-10.32114,1.30586v27.055s1.46747,1.11443,5.52516-.039c5.234-1.49238,7.57562.14742,7.57562.14742V132.545S127.34961,131.30457,125.17455,131.372Z" style="fill: #fff"/>
          <path d="M115.36616,217.50061v27.056s1.46018,1.11734,5.511-.04c5.24823-1.50018,7.58981.13372,7.58981.13372V217.356s-.61877-1.24235-2.79184-1.171C121.634,216.311,117.68194,217.904,115.36616,217.50061Z" style="fill: #fff"/>
        </g>
        <g>
          <path d="M162.64148,119.35192H97.75473V178.193h64.88676Zm-9.67407,46.828H134.37677v2.33528h-7.70944v-2.33528H108.07678v-31.4188h3.957V129.0436c4.03419.97372,10.61359-1.24825,13.55095-1.24135a7.964,7.964,0,0,1,4.93619,1.42007,8.017,8.017,0,0,1,4.9342-1.42007c2.93976,0,9.51235,2.19557,13.55094,1.24135v5.71749h3.96138Z" style="fill: #fff"/>
          <path d="M69.449,119.35192H4.51394V178.193H69.449Zm-9.8825,46.828H40.97435v2.33528H33.26692v-2.33528H14.669v-31.4188h3.96678V129.0436c4.03169.97372,10.61309-1.24825,13.54994-1.24135a7.99679,7.99679,0,0,1,4.9411,1.42007,7.99366,7.99366,0,0,1,4.9288-1.42007c2.93785,0,9.51135,2.19557,13.54414,1.24135v5.71749H59.5665Z" style="fill: #fff"/>
          <path d="M97.75473,283.39719c16.36128-4.73487,32.56884-11.06184,43.54337-21.09825a61.43312,61.43312,0,0,0,9.80969-11.30407H134.37636V253.333h-7.705v-2.33818H108.069V219.56916h3.97558v-5.71939c4.02489.97572,10.60428-1.23845,13.544-1.23845a7.92674,7.92674,0,0,1,4.9342,1.426,7.9871,7.9871,0,0,1,4.9293-1.426c2.94426,0,9.51685,2.19947,13.551,1.23845v5.71939h3.97308V247.9906c5.97482-10.33525,8.81357-22.98718,9.779-40.76664l-.11372-2.65072H97.75473Z" style="fill: #fff"/>
          <path d="M14.67037,247.67026v-28.1011h3.97368v-5.71939c4.02589.97572,10.60628-1.23845,13.54464-1.23845a7.96491,7.96491,0,0,1,4.9415,1.426,7.96434,7.96434,0,0,1,4.9278-1.426c2.93886,0,9.51145,2.19947,13.54314,1.23845v5.71939H59.5679v31.42571H40.96946V253.333H33.26932v-2.33818h-16.565a62.26382,62.26382,0,0,0,9.465,11.185c10.34115,9.69157,26.56671,16.26957,43.27184,21.16266V204.57324H4.51394l.13572,2.4934C5.29574,223.32741,8.34981,236.59272,14.67037,247.67026Z" style="fill: #fff"/>
        </g>
      </g>
    </g>
    <g>
      <g>
        <path d="M169.85716,64.87373c-.97521-.716-11.32167-1.98954-12.93466-1.98954-1.5725,0-10.50808.08011-13.95869.60257a96.346,96.346,0,0,1-21.464,0,18.71548,18.71548,0,0,0-7.57612,1.05583,19.7605,19.7605,0,0,0,1.505-1.40637c2.05105-2.10966,4.34823-6.116,8.42442-8.11238,1.03132-.51076,1.99244-1.03132,2.92755-1.55489,3.42231,1.71121,8.81607,2.87245,15.52-.28223,10.00221,4.9938,15.96773,1.6155,18.07739-.16212a11.34321,11.34321,0,0,0,4.02-8.61924,10.58541,10.58541,0,0,0-.53717-3.349c-1.43917-4.34813-5.405-7.05845-10.85291-7.69523a13.35635,13.35635,0,0,0-1.39906-3.25339c.63287-.8057,1.233-1.56559,1.6242-2.02555.47375-.59677,2.117-3.3237-2.283-1.049-.22753.11621-.647.34874-1.18614.65338a11.29725,11.29725,0,0,0-2.07205-1.6437c-4.102-2.5013-9.64817-2.806-15.36026-1.28046a11.33551,11.33551,0,0,0-4.70466-7.081c-2.51491-1.53919-5.68179-1.98264-9.41374-1.41227.232-.54687.44535-1.03132.62368-1.41227,1.6593-3.476.76419-4.34623-.97962-2.80594-1.967,1.74431-3.207,2.98766-4.1539,3.98968-3.53013-5.66569-8.18059-9.49235-13.675-10.94853a21.103,21.103,0,0,0-14.55986,1.6525,35.80508,35.80508,0,0,0-.91861-5.359c-.8658-2.81964-1.89813-.60457-2.06025.26463-.19242,1.17694-.45906,2.79534-.76769,4.66957A19.00319,19.00319,0,0,0,67.10792,4.632c-5.29654,1.6203-9.33413,5.56707-11.66061,11.05014A32.22759,32.22759,0,0,0,50.144,14.2953a32.30773,32.30773,0,0,0-4.41653-4.64606c-1.35366-1.20035-2.471-.57627-1.6589,1.79122.31794.91511.59377,1.72681.8492,2.4935a14.86651,14.86651,0,0,0-8.39312,2.88215A14.57688,14.57688,0,0,0,31.06155,26.287c-.21583.05371-.504.12412-.504.12412-3.078.70609-7.23328,1.86343-9.83659,5.96842-.46006-.28413-.796-.49316-.93521-.58407-7.76024-5.15292-4.18261,1.47578-1.18084,4.398C8.2844,37.65363,5.37294,42.61123,4.62675,45.55689A9.283,9.283,0,0,0,4.344,47.83746a10.6724,10.6724,0,0,0,4.68017,8.69245c3.44922,2.33428,7.63382,2.19167,11.35538-.18852,4.859,1.56559,11.72312,1.31266,16.64761-2.26877,2.84015,3.06087,5.13392,5.233,6.37767,6.46948a31.84946,31.84946,0,0,0,9.9529,6.30156A20.93975,20.93975,0,0,0,43.42145,65.53c-8.25,1.14864-13.72576-.34474-17.25749-.69538-5.821-.57717-11.80363.42485-14.78249.42485-3.15718,0-7.61422,1.48458-9.78639,1.80392C-.7533,67.415-.60048,68.96692,2.66752,69.83423c3.23519.87611,9.298,1.41427,10.94273,2.11746,5.26674,2.28738,14.0779,4.19781,20.28955,3.69965,4.40773-.33694,8.84577,1.81272,9.98561,2.14966,2.18576.671,7.60442,2.14976,9.83029,2.10966a45.84981,45.84981,0,0,0,.23043,4.67247,23.39823,23.39823,0,0,0-2.37619.90541c-2.4671-1.49928-13.29221-5.88941-26.4778-.42485-2.78554-.964-8.68325-4.21731-16.76183-1.55789-9.97531,3.2924-8.357,12.4264-5.067,16.61141,4.44974,5.66089,12.68224,4.51425,15.077,1.6662,5.35855,3.55813,10.824,2.35389,14.79079-.10741,2.60682,1.53239,15.43457,4.07569,25.18425.10741,1.33366.99132,6.68591,3.78566,13.55774.32434,3.96638,2.35469,10.52667,2.53641,13.89338-.43175,1.22125,1.03823,4.88239,2.52471,12.68214,2.43489,9.36633-.11231,11.5419-1.509,12.85456-2.65072,2.01834.93561,7.27578,3.685,13.783.90931,3.50872,2.20827,10.534,2.07935,14.301-.39065,6.88413,3.12928,19.51166,1.713,22.67124-.465,5.65148-3.91937,2.91825-11.90964-3.3051-15.7011-12.23588-6.16675-23.62546-1.382-26.64923.16992-3.603-2.43289-11.14345-3.99268-18.9725-2.54031a28.03933,28.03933,0,0,0-.0166-3.184c0-.126-.0186-.24423-.021-.37114,1.55189-.47076,3.75725-2.14186,8.2485-2.42319,6.11114-.41215,20.52939-.21973,27.73726-3.91447,4.1138-2.10285,18.426-4.90789,20.33446-6.02223C171.38514,66.40021,170.86508,65.56421,169.85716,64.87373Zm-52.49706-8.2676c-5.19693,6.11594-7.81734,8.249-8.72906,8.208a22.63373,22.63373,0,0,0-4.69057-5.68039c1.87033-2.07645,9.99051-5.86691,13.73606-8.68855.55327-.41505,2.19657-1.423,2.89975-1.80882a18.68515,18.68515,0,0,0,3.436,3.19769C120.799,53.62136,119.0268,54.65269,117.3601,56.60612ZM42.48284,43.331a16.09681,16.09681,0,0,0,13.15009-3.65764c4.53955,7.24988,4.65926,13.81517,9.04009,18.33912-5.53187-5.35215-10.35715-5.24964-18.26971-9.51875-1.366-.73639-3.40621-2.06175-3.98048-2.35379-.0093-.0068-.0259-.0137-.0357-.0195a15.6249,15.6249,0,0,0,.146-2.10575C42.53314,43.80177,42.48924,43.55274,42.48284,43.331ZM76.20522,51.4336l.11621.248s-2.409-3.61564-2.69953-4.07659c-.8243-1.26-1.89773-2.53351-3.09858-4.01229-1.88493-2.28148-3.54193-4.1352-4.82038-5.51917a23.87983,23.87983,0,0,0,10.64189-6.23225c.41365.30084.8317.52846,1.24875.7931-.21193,1.24435-.40775,2.36949-.55627,3.185a66.288,66.288,0,0,0-1.022,10.25414A53.58568,53.58568,0,0,0,76.20522,51.4336Zm-6.91884-4.51715A66.673,66.673,0,0,1,73.30887,53.008,33.967,33.967,0,0,0,67.208,56.13827c-3.07947-3.183-5.46546-12.78765-7.00575-15.33486-.589-.97472-1.00452-1.6506-1.32486-2.17506a13.61317,13.61317,0,0,0,3.75635.332C62.93261,39.38524,65.58723,42.00666,69.28638,46.91645ZM83.58262,54.055A26.68952,26.68952,0,0,1,110.56,81.029a32.11733,32.11733,0,0,1-.26473,3.98968,27.723,27.723,0,0,0-4.80088,1.803,27.08772,27.08772,0,0,0-25.87423-.06351c-4.57086-3.62444-14.8611-3.91157-22.62134-2.11156a28.24455,28.24455,0,0,1-.39455-3.61764A26.97581,26.97581,0,0,1,83.58262,54.055ZM79.69834,43.74517a49.79537,49.79537,0,0,1,1.39567-9.0597,20.057,20.057,0,0,0,3.61074,1.26965c.98652,2.08915,2.66052,10.43386,1.92653,15.46087a38.19733,38.19733,0,0,0-6.536,0C79.60013,50.52039,79.52982,46.432,79.69834,43.74517Zm23.90909.54307c-1.52358,3.2777-.731,7.51651-4.63136,11.36268a52.50085,52.50085,0,0,0-5.95732-2.92025c.61877-5.20773,5.46506-11.71432,8.63634-14.40024a13.61236,13.61236,0,0,0,3.62154,2.79234C104.90639,41.75953,104.26872,42.874,103.60744,44.28823Zm4.1304-1.047c.12652-.21883.272-.50106.42435-.8058a21.8377,21.8377,0,0,0,9.21892.87611,16.12707,16.12707,0,0,0,1.43717,3.21329.3294.3294,0,0,0-.05181.0264c-1.547.73639-6.24,3.94668-13.09629,7.76654a14.82221,14.82221,0,0,0-3.49452,2.57351,17.11141,17.11141,0,0,0,2.25707-3.84027C105.63988,49.96072,105.31864,47.48,107.73784,43.24121ZM91.146,47.19478A30.93134,30.93134,0,0,0,89.83337,51.124c.57917-4.04249-.51817-9.95531-1.69461-15.06332a20.51187,20.51187,0,0,0,10.64239-2.86075,16.02983,16.02983,0,0,0,1.00112,2.19167C97.78253,37.21508,93.00265,42.46181,91.146,47.19478Zm-55.3456,4.1421c-4.04589,3.24259-10.7181,3.55413-14.83089,1.98174a1.64815,1.64815,0,0,0-1.56119.206c-2.74643,1.99434-5.7473,2.17016-8.2384.48156a7.10527,7.10527,0,0,1-3.04717-7.4248c.96782-3.82756,5.54407-6.42168,12.54832-7.121a1.65456,1.65456,0,0,0,1.45968-1.32636c1.25605-6.41088,5.42546-7.36609,9.45474-8.2851l1.738-.41705a1.61367,1.61367,0,0,0,1.213-1.80692c-.15232-1.20815.89861-5.35025,4.30132-7.97947,3.96088-3.06087,9.8957-3.13418,17.16618-.21583a1.654,1.654,0,0,0,2.17947-.99232c1.82342-5.276,5.43856-8.98059,10.18383-10.43a16.41962,16.41962,0,0,1,14.722,2.94856,1.65914,1.65914,0,0,0,1.89183.06641A18.294,18.294,0,0,1,99.47023,8.5055c5.30724,1.40547,9.80779,5.39225,13.00938,11.5298a1.65477,1.65477,0,0,0,2.00414.7969c4.9811-1.714,9.02939-1.75411,11.71092-.11521a8.595,8.595,0,0,1,3.71285,6.33377,1.65342,1.65342,0,0,0,2.159,1.33706c5.28333-1.76581,10.59058-1.507,14.198.69248a8.70761,8.70761,0,0,1,4.24711,6.21755,1.64885,1.64885,0,0,0,1.53089,1.39467c4.61286.28033,7.88525,2.32648,8.97519,5.61788a7.87961,7.87961,0,0,1-2.4798,8.40242c-3.48812,2.93786-9.01079,2.74543-15.14733-.53326a1.64875,1.64875,0,0,0-1.53288-.0098c-4.78178,2.4632-9.30823,2.62822-13.46644.49036-4.86389-2.5082-7.67233-7.4218-8.04247-9.95541a1.64521,1.64521,0,0,0-.65388-1.09873,1.66782,1.66782,0,0,0-1.24485-.29784c-3.40561.54987-14.71118,1.50988-17.05276-9.32243a1.65064,1.65064,0,0,0-.99382-1.18374c-.504-.20612-1.08313.18552-1.53779.48836-7.33289,4.87649-14.56426,4.52985-21.5041-1.03923a1.6476,1.6476,0,0,0-2.21217-.0068C67.25,36.26376,60.76245,35.67,57.59607,34.38753a1.63753,1.63753,0,0,0-2.01684.61637c-3.06387,4.85019-9.635,5.85611-14.21662,4.37643a1.61733,1.61733,0,0,0-1.57539.14652,1.64158,1.64158,0,0,0-.567,1.50308C39.88292,45.51588,38.73238,48.985,35.80043,51.33689Zm3.81446,1.51188a14.82862,14.82862,0,0,0,1.96944-3.99948c.42145.25593.76379.47076.94881.60357a48.62576,48.62576,0,0,0,4.29112,2.557c6.85083,3.21719,11.14685,4.02189,15.81922,7.78994a35.389,35.389,0,0,0-4.51075,5.88941C48.33364,62.96619,40.676,54.22784,39.61489,52.84877ZM44.7058,74.68441c-.95912-.332-6.54039-2.36159-9.8738-2.12916-6.824.49716-15.50037-1.6525-19.8017-3.35C13.95838,68.7882,4.56275,67.9659,13.704,67.9659c3.00426,0,6.73912-.8429,12.75154.0195a84.8872,84.8872,0,0,0,18.92229.36434c4.54155-.36434,8.02927,1.13094,9.78339,2.86165A41.05176,41.05176,0,0,0,53.994,76.94349C51.59674,76.98839,47.1592,75.56052,44.7058,74.68441ZM21.63661,99.47061c-4.1455-2.96126-6.95154-8.43942-9.83719-7.48521-1.20615.39165-1.34,2.54421.31894,2.58721,1.14074.0263,3.17708,3.03457,4.35693,4.36473-.30474,1.59789-4.42234,3.2934-8.74176.69638a7.35665,7.35665,0,0,1-2.36059-9.8801c1.45908-2.55011,5.59778-3.95258,10.56618-3.84717,9.61056.21593,12.31109,11.14,14.57156,13.1852C30.51069,100.1778,25.33086,102.11454,21.63661,99.47061ZM35.5855,99.3222c-3.62884-1.60959-6.50078-9.966-7.56821-11.03454-.42485-.42385,6.42117-2.90855,13.378-2.30788C53.24054,86.9877,53.27424,94.346,56.1925,98.01834,57.25512,99.3544,46.582,102.41537,35.5855,99.3222Zm38.77479.74519c-1.108-.74909-4.47714-4.9713-5.677-6.42948-1.20185-1.44938-3.41641-2.77374-4.35793-1.44938-.56307.796.0195,1.71011,1.02162,2.28448,1.07433.61627,3.92528,4.30522,4.29732,5.00151-.21873,1.14084-5.53047,3.05017-8.63575-.72949-1.60469-1.96414-4.71547-7.78714-6.5858-10.28054,6.75232-2.39779,14.784-3.2934,20.47418-.61147,5.45966,2.56671,6.409,8.48343,8.58554,11.35978C84.01526,101.14562,77.6824,102.31866,74.36029,100.06739Zm14.8802-.14262c-3.61963-1.6144-6.50079-9.97191-7.57122-11.04034-.42975-.424,6.42458-2.89585,13.38242-2.30008,11.854,1.003,11.88674,8.36621,14.79819,12.03076C110.91893,99.958,100.24623,103.02575,89.2405,99.92477Zm59.25327-13.739c11.84663,1.004,14.66388,8.80387,13.485,11.33437-1.03633,2.223-8.2911,5.10712-19.28894,2.00814-3.62894-1.6165-6.50719-9.97291-7.56692-11.04144C134.6918,88.062,141.53393,85.591,148.49377,86.18581ZM128.377,88.04833c5.47086,2.57071,6.73911,8.44732,8.57673,11.35588.53666,1.93683-6.10374,2.53651-9.1158.86931-1.16035-.66028-4.47035-4.9713-5.67019-6.43738-1.20035-1.44938-3.078-2.387-4.01319-1.06453-.56257.796.11281,1.74821,1.15344,2.32158,1.27515.69338,3.44332,3.88617,3.82766,4.58065-.21783,1.14074-4.90589,2.63312-8.34231-.8488-1.758-1.76871-4.9176-7.93746-6.12965-10.35185C115.40966,86.06669,122.69275,85.36841,128.377,88.04833Zm31.79-20.6734a75.24931,75.24931,0,0,0-12.73064,3.63524c-6.76252,2.63312-20.12834,3.36171-25.55919,3.2699-5.21354-.08591-6.97155,2.221-8.79747,1.89673a26.88672,26.88672,0,0,0-1.76241-6.948,25.68146,25.68146,0,0,1,10.7493-2.31768c5.7478.21773,16.23247.65628,21.64962-.19242,2.64882-.40535,12.3321-.45125,13.80637-.45906a26.41341,26.41341,0,0,1,3.3217.29984C163.13664,66.91107,161.31562,67.1357,160.16708,67.37493Z" style="fill: #231f20"/>
        <g>
          <path d="M21.38758,44.35464c-2.88855,0-5.20673.06051-7.23918,2.26977-2.17366,2.35379-1.6457,3.64694-2.05,4.07279-.59387.58307-2.08325-.44545-2.05595-1.6116.126-5.53967,6.81723-7.70113,10.785-7.25768,1.51188.17872,1.903,2.52671.56017,2.52671" style="fill: #231f20"/>
          <path d="M33.1414,35.05661c-4.22561.464-5.46256,2.52761-6.21555,4.89409-.30864.88981-2.67952.252-2.30448-1.49918,1.12074-5.20573,6.76832-6.47928,8.81837-6.03493.69008.13292.47766,2.56671-.29834,2.64" style="fill: #231f20"/>
          <path d="M51.54643,23.74074c-7.49451-2.93876-11.25576,2.74553-12.46921,7.22948-.16562.60937-2.67613.37895-2.32158-1.52558.86921-4.59626,5.36245-11.28847,15.62689-8.68275,1.26035.31844.51756,3.516-.8361,2.97886" style="fill: #231f20"/>
          <path d="M79.60013,16.35215c-6.90564-4.74858-12.3369-.93561-15.21615,2.4994-1.38107,1.632-2.82064-1.06653-2.22877-2.01594,2.4822-3.93408,11.00173-9.98851,18.55295-3.3236.8483.73739-.16212,3.476-1.108,2.84014" style="fill: #231f20"/>
          <path d="M107.95806,22.77583c-.57427.41015-.91661-.52346-1.29606-1.13494-6.15555-9.73748-17.29259-7.16877-20.28616-2.65262-.607.91511-2.22677-1.56559-1.43907-2.85875,2.70242-4.397,16.84033-8.49033,24.09271,3.94678.76869,1.35366-.25783,2.14186-1.07143,2.69953" style="fill: #231f20"/>
          <path d="M125.28536,28.89767c-1.74191-4.53765-5.01621-4.35793-8.92828-3.11078-1.803.591-1.36687-2.39479-.77159-2.60091,3.75045-1.32626,10.13792-1.91623,11.84223,4.35213.48736,1.75221-1.6643,2.58721-2.14236,1.35956" style="fill: #231f20"/>
          <path d="M145.58222,38.65465c-3.10828-5.71159-8.12888-5.69789-12.32269-4.0981-.93961.37014-1.78832-2.01784-.29984-2.86655,4.041-2.30788,12.30859-1.89673,14.87971,5.47816.44095,1.25405-1.22335,3.38421-2.25718,1.48648" style="fill: #231f20"/>
          <path d="M158.48618,47.64794c-.24123.95622-2.58771,1.01582-2.5057.0401.35844-4.67637-1.95284-5.05341-5.03041-5.02111-1.16514.0273-1.07583-2.4867-.19432-2.679,4.1558-.96212,9.14611,2.07535,7.73043,7.66" style="fill: #231f20"/>
        </g>
        <g>
          <path d="M77.6771,71.82867a3.13837,3.13837,0,1,1-6.26886-.31454l.0283-.34574c-.26663-.41115-1.6784-.86831-3.77536.40435-1.05333.64758-2.23467.20312-.40485-1.383a10.82911,10.82911,0,0,1,5.41376-2.86855l.05181-.0127a21.53068,21.53068,0,0,1,7.96576,1.049c.69148.28123-.0263,3.67324-.18452,3.63324a6.42167,6.42167,0,0,0-2.83294-.41025l.0069.24813" style="fill: #231f20"/>
          <path d="M86.67569,81.23411c-.55087,1.60069-6.21945,2.11256-7.26158.0293-.41115-.8263-.98162-2.95836-.21243-2.5169,1.26085.73349,5.8215.21483,6.68441,0,.76179-.19542.26463-1.25705.73589-1.12714.56256.15632.56256,2.09885.0537,3.61474" style="fill: #231f20"/>
          <path d="M100.0142,72.36283c-1.425-1.17394-3.2909-1.6886-4.00578-1.17394l.0259.24123a3.13931,3.13931,0,1,1-6.25476.547v-.13482c-1.12754-.35544-2.92555.26573-3.17168.169-.14512-.06741-.90691-3.2631.08691-3.66554,2.70733-1.10363,11.43008-1.6437,13.96409,3.25439.29784.59377.11231,1.383-.64468.76269" style="fill: #231f20"/>
        </g>
      </g>
      <g>
        <path d="M97.75473,119.35192h64.88676V178.193H97.75473Zm-93.24079,0H69.449V178.193H4.51394ZM69.4412,283.34248c-16.70512-4.89309-32.93069-11.47109-43.27184-21.16266a62.26382,62.26382,0,0,1-9.465-11.185h16.565V253.333h7.70014v-2.33818H59.5679V219.56916H55.60112v-5.71939c-4.03169.961-10.60428-1.23845-13.54314-1.23845a7.96434,7.96434,0,0,0-4.9278,1.426,7.96491,7.96491,0,0,0-4.9415-1.426c-2.93835,0-9.51875,2.21417-13.54464,1.23845v5.71939H14.67037v28.1011c-6.32057-11.07754-9.37464-24.34285-10.02071-40.60362l-.13572-2.4934H69.4412Zm-47.474-38.7859v-27.056c2.31428.40335,6.26786-1.18964,10.31375-1.31566,2.16826-.07131,2.78554,1.171,2.78554,1.171V244.6503s-2.34158-1.6339-7.58832-.13372C23.42583,245.67392,21.96715,244.55658,21.96715,244.55658Zm17.20528.09371V217.356s.61677-1.24235,2.78644-1.171c4.04589.126,7.99857,1.719,10.32055,1.31566v27.056s-1.46648,1.11734-5.51917-.04C41.51352,243.0164,39.17243,244.6503,39.17243,244.6503Zm55.18978,39.77052-10.7538,2.73663-10.7771-2.77964V200.9575H4.51394V181.80679H72.83131V119.35192h21.5309v62.45486h68.27927V200.9575H94.36222Zm58.614-36.43021V219.56916h-3.97308v-5.71939c-4.03419.961-10.60678-1.23845-13.551-1.23845a7.9871,7.9871,0,0,0-4.9293,1.426,7.92674,7.92674,0,0,0-4.9342-1.426c-2.93976,0-9.51915,2.21417-13.544,1.23845v5.71939H108.069v31.42571h18.60235V253.333h7.705v-2.33818h16.73143a61.43312,61.43312,0,0,1-9.80969,11.30407c-10.97453,10.03642-27.18209,16.36338-43.54337,21.09825V204.57324h64.88676l.11372,2.65072C161.78978,225.00342,158.951,237.65535,152.97621,247.9906Zm-7.30408-30.49v27.056s-1.45818,1.11734-5.51337-.04c-5.24574-1.50018-7.58052.13372-7.58052.13372V217.356s.60507-1.24235,2.78694-1.171C139.40427,216.311,143.349,217.904,145.67213,217.50061Zm-17.20519-.14462V244.6503s-2.34158-1.6339-7.58981-.13372c-4.0508,1.15734-5.511.04-5.511.04v-27.056c2.31578.40335,6.26786-1.18964,10.30895-1.31566C127.84817,216.11364,128.46695,217.356,128.46695,217.356ZM.54126,115.38664v87.07694c0,28.77888,7.19127,48.71,22.56673,62.71269,15.27135,13.90008,38.14032,20.95764,60.50042,26.23948,22.96718-5.42546,45.07046-12.19478,60.49222-26.23948,15.38176-14.0027,22.52813-33.93381,22.52813-62.71269V115.38664Z" style="fill: #231f20"/>
        <path d="M55.59972,134.76109V129.0436c-4.03279.95422-10.60628-1.24135-13.54414-1.24135a7.99366,7.99366,0,0,0-4.9288,1.42007,7.99679,7.99679,0,0,0-4.9411-1.42007c-2.93685-.0069-9.51825,2.21507-13.54994,1.24135v5.71749H14.669v31.4188H33.26692v2.33528h7.70743v-2.33528H59.5665v-31.4188ZM35.05864,159.84123s-2.33528-1.6398-7.58152-.14742c-4.05319,1.15344-5.51827.039-5.51827.039v-27.055c2.32108.40525,6.27426-1.18674,10.31375-1.30586,2.17516-.06741,2.786,1.173,2.786,1.173Zm17.21788-.10841s-1.466,1.11443-5.51777-.039c-5.24623-1.49238-7.58882.14742-7.58882.14742V132.545s.61727-1.24045,2.78744-1.173c4.045.11911,7.99857,1.71111,10.31915,1.30586Z" style="fill: #231f20"/>
        <path d="M149.006,134.76109V129.0436c-4.03859.95422-10.61118-1.24135-13.55094-1.24135a8.017,8.017,0,0,0-4.9342,1.42007,7.964,7.964,0,0,0-4.93619-1.42007c-2.93736-.0069-9.51676,2.21507-13.55095,1.24135v5.71749h-3.957v31.4188h18.59055v2.33528h7.70944v-2.33528h18.59065v-31.4188Zm-21.05185,25.08014s-2.34158-1.6398-7.57562-.14742c-4.05769,1.15344-5.52516.039-5.52516.039v-27.055c2.32308.40525,6.28206-1.18674,10.32114-1.30586,2.17506-.06741,2.77964,1.173,2.77964,1.173Zm17.21938-.10841s-1.46748,1.11443-5.52027-.039c-5.253-1.49238-7.58732.14742-7.58732.14742V132.545s.62308-1.24045,2.79384-1.173c4.039.11911,7.99306,1.71111,10.31374,1.30586Z" style="fill: #231f20"/>
      </g>
    </g>
    <g>
      <polygon points="72.831 284.378 83.608 287.157 94.362 284.421 94.362 200.958 162.641 200.958 162.641 181.807 94.362 181.807 94.362 119.352 72.831 119.352 72.831 181.807 4.514 181.807 4.514 200.958 72.831 200.958 72.831 284.378" style="fill: #ed1c24"/>
      <g>
        <path d="M41.3953,85.97978c-6.95684-.60067-13.80287,1.884-13.378,2.30788,1.06743,1.06853,3.93937,9.42494,7.56821,11.03454,10.99653,3.09317,21.66962.0322,20.607-1.30386C53.27424,94.346,53.24054,86.9877,41.3953,85.97978Z" style="fill: #ed1c24"/>
        <path d="M95.0517,86.58435c-6.95784-.59577-13.81217,1.87613-13.38242,2.30008,1.07043,1.06843,3.95158,9.42594,7.57122,11.04034,11.00573,3.101,21.67843.0332,20.6094-1.30966C106.93844,94.95057,106.90574,87.58738,95.0517,86.58435Z" style="fill: #ed1c24"/>
        <path d="M142.68987,99.52832c10.99783,3.099,18.25261.21483,19.28894-2.00814,1.17884-2.53051-1.6384-10.33035-13.485-11.33437-6.95984-.59477-13.802,1.87623-13.37082,2.30108C136.18268,89.55541,139.06093,97.91183,142.68987,99.52832Z" style="fill: #ed1c24"/>
      </g>
    </g>
  </g>
</svg>
